<?xml version='1.0' encoding='utf-8'?>
<svg xmlns="http://www.w3.org/2000/svg" height="575" viewBox="0 0 742 575" width="742"> <path d="M615.64 574.26C614.753 572.556 614.339 570.451 613.251 570.025C612.222 569.623 610.542 571.09 609.087 571.551C608.508 571.74 607.762 571.504 607.112 571.374C604.865 570.936 602.629 570.096 600.394 570.12C598.572 570.132 597.851 569.493 596.94 568.121C594.645 564.691 592.091 561.438 589.619 558.115C589.465 557.914 589.24 557.713 589.004 557.63C585.739 556.471 582.522 555.122 579.175 554.294C577.424 553.857 576.454 553.384 576.537 551.515C576.644 549.268 576.1 547.529 573.438 547.257C572.989 547.21 572.327 546.819 572.185 546.429C570.635 542.195 566.649 543.697 563.704 542.833C563.255 542.703 562.557 543.153 562.072 543.472C560.12 544.738 559.292 544.501 558.535 542.325C558.37 541.84 558.358 541.296 558.204 540.787C557.565 538.564 556.312 538.292 554.644 539.888C554.017 540.491 553.142 540.846 552.385 541.308C552.054 540.468 551.474 539.64 551.451 538.788C551.368 534.53 548.257 531.798 546.317 528.51C544.827 525.979 542.816 523.743 541.326 521.212C539.552 518.208 538.322 517.617 535.223 519.154C533.082 520.219 531.308 521.934 528.528 521.579C527.665 521.472 526.601 522.88 525.654 523.637C522.011 526.535 520.769 526.369 518.38 522.407C517.292 520.597 515.802 520.751 514.075 520.893C513.129 520.976 511.981 520.668 511.189 520.136C509.592 519.06 508.374 519.391 508.043 521.39C507.83 522.667 508.066 524.027 507.806 525.293C507.688 525.861 506.872 526.286 506.375 526.783C505.961 526.227 505.275 525.707 505.18 525.092C505.039 524.086 505.334 523.01 505.334 521.969C505.358 518.445 503.726 515.984 500.284 515.405C498.734 515.145 496.617 515.819 495.387 516.824C494.488 517.569 494.63 519.556 494.287 521.141C492.88 522.123 490.987 523.448 489.036 524.808C486.623 522.36 486.504 522.36 483.867 525.6C483.524 524.63 483.37 523.814 482.968 523.152C481.797 521.2 480.827 518.989 479.219 517.463C476.924 515.287 474.629 516.422 473.979 519.58C473.754 520.668 473.139 521.662 472.701 522.703C471.649 522.028 470.3 521.579 469.603 520.645C468.29 518.87 467.414 516.777 466.208 514.908C465.64 514.033 464.86 512.921 463.996 512.732C463.346 512.59 462.34 513.654 461.619 514.329C461.051 514.849 460.755 515.641 460.211 516.197C458.532 517.924 457.29 517.617 456.45 515.417C456.154 514.624 455.646 513.915 455.173 513.205C453.978 511.419 452.618 509.716 451.577 507.847C450.832 506.499 450.323 505.47 448.431 505.28C447.13 505.15 445.947 503.731 444.551 502.773C445.829 499.083 443.913 496.611 441.098 494.482C440.802 494.257 440.66 493.76 440.565 493.358C439.572 489.396 438.969 489.064 435.432 490.732C435.231 488.579 435.622 486.155 434.663 484.499C433.67 482.772 431.387 481.779 430.394 481.033C429.885 478.585 429.507 476.787 429.14 475.001C429.069 474.67 428.927 474.256 429.057 474.008C430.5 471.358 428.478 470.885 426.431 470.128C427.2 469.963 427.815 469.998 428.217 469.714C428.809 469.3 429.577 468.697 429.648 468.106C429.719 467.514 429.152 466.485 428.608 466.261C426.786 465.492 424.858 464.995 422.599 464.273C422.599 463.41 422.682 462.204 422.575 461.021C422.469 459.909 422.481 458.584 421.889 457.756C420.494 455.805 418.684 454.173 419.808 451.346C419.926 451.038 418.672 449.761 417.939 449.643C416.886 449.477 415.148 449.583 414.734 450.234C413.161 452.682 412.167 451.843 410.901 450.08C409.754 448.472 408.205 447.632 406.135 448.211C405.721 448.33 405.023 448.543 404.905 448.377C402.965 445.739 401.061 447.194 398.778 448.945C398.885 447.703 398.837 447.052 399.003 446.461C399.701 444.024 398.4 439.613 396.259 438.229C395.715 437.874 394.449 438.182 393.763 438.595C391.859 439.743 390.274 440.098 388.855 437.898C388.523 437.389 387.778 437.011 387.151 436.845C385.708 436.478 384.218 436.041 382.74 436.064C379.747 436.1 378.174 434.184 376.719 432.102C375.123 429.807 372.934 428.53 370.261 428.069C368.629 427.785 367.919 426.921 367.647 425.301C367.435 424.059 366.808 422.876 366.323 421.682C366.157 421.28 365.66 420.913 365.684 420.558C365.992 416.572 362.869 414.396 360.929 411.652C359.262 409.298 357.369 407.051 355.287 405.052C352.839 402.698 351.621 400.049 351.964 396.654C352.212 394.135 351.337 392.763 348.747 391.521C346.677 390.527 346.097 387.026 343.14 386.411C343.59 382.733 342.147 380.261 337.676 379.315C339.557 377.943 340.787 377.056 341.993 376.145C343.27 375.187 343.921 374.051 342.762 372.608C341.662 371.248 340.373 370.55 338.717 371.84C337.936 372.443 337.12 372.987 336.316 373.567C336.079 373.318 335.843 373.082 335.606 372.833C336.399 372.029 337.108 371.071 338.031 370.444C339.107 369.722 340.467 369.415 341.52 368.67C342.218 368.185 342.584 367.239 343.093 366.494C342.324 366.056 341.603 365.382 340.787 365.228C339.627 365.015 338.397 365.169 336.872 365.169C337.226 364.223 337.581 363.69 337.605 363.146C337.64 362.034 337.487 360.923 337.416 359.811C336.056 360.059 334.388 359.905 333.406 360.651C332.093 361.644 331.324 363.347 330.295 364.779C328.64 363.832 327.161 362.993 325.517 362.046C326.83 360.107 328.403 357.836 326.463 355.624C325.848 354.926 323.755 355.517 321.898 355.517C322.43 354.098 323.542 352.489 323.447 350.964C323.353 349.414 322.051 347.936 321.129 346.126C322.146 345.937 323.069 345.878 323.92 345.582C325.884 344.896 327.717 343.903 327.717 341.49C327.729 339.278 325.836 338.793 324.216 338.142C321.614 337.09 319.012 336.037 316.41 334.984C316.481 334.724 316.54 334.464 316.611 334.204C317.947 334.204 319.284 334.251 320.608 334.192C322.844 334.097 324.039 332.749 324.003 330.655C323.956 327.557 322.95 324.872 319.958 323.251C318.61 322.53 317.415 321.536 316.149 320.673C316.362 320.365 316.575 320.07 316.788 319.762C317.356 320.141 317.924 320.531 318.491 320.909C320.62 322.329 322.264 321.702 322.619 319.183C322.773 318.106 322.548 316.935 322.288 315.859C321.815 313.955 321.507 312.334 322.962 310.489C323.518 309.779 322.406 307.757 322.051 306.326C322.359 306.397 323.364 306.905 324.287 306.775C325.363 306.621 326.369 305.924 327.398 305.451C326.712 304.67 326.132 303.747 325.304 303.168C324.512 302.624 323.471 302.446 322.536 302.103C322.513 301.867 322.477 301.618 322.454 301.382C323.222 301.015 323.956 300.436 324.748 300.329C326.037 300.152 327.386 300.14 328.663 300.329C337.096 301.571 345.482 303.18 353.951 304.031C357.215 304.362 359.664 305.108 361.946 307.426C363.011 308.502 364.903 309.212 366.441 309.247C367.565 309.283 368.889 308.112 369.824 307.166C370.321 306.657 370.179 305.51 370.297 304.658C370.711 301.63 371.622 300.98 374.212 302.458C378.032 304.634 381.687 302.766 385.377 302.269C385.909 302.198 386.335 300.719 386.655 299.844C387.471 297.632 388.204 295.397 389.079 292.842C390.108 293.564 390.641 293.765 390.889 294.143C392.285 296.237 393.976 296.331 395.726 294.77C397.039 293.599 397.974 293.93 399.05 295.03C401.841 297.904 404.621 300.802 407.542 303.546C408.335 304.291 409.577 304.552 410.618 305.013C414.686 306.823 418.743 305.604 422.8 304.977C422.883 304.966 422.978 304.989 423.06 304.966C424.184 304.528 425.308 304.09 426.443 303.653C425.615 302.837 424.917 301.784 423.947 301.252C420.541 299.371 420.068 297.656 421.949 294.049C423.262 291.529 424.208 288.821 425.603 286.361C426.1 285.497 427.378 284.894 428.418 284.563C430.051 284.03 431.801 283.9 433.481 283.475C435.208 283.025 435.728 282.114 434.64 280.411C433.611 278.814 432.866 277.028 431.659 274.687C433.8 274.119 435.74 273.646 437.644 273.066C438.602 272.782 439.797 272.546 440.364 271.86C442.269 269.577 441.476 267.377 438.496 267.2C435.113 266.999 432.416 265.993 430.027 263.521C427.898 261.309 427.721 258.979 429.885 256.815C430.488 256.212 430.879 255.041 430.819 254.165C430.725 252.805 430.169 251.492 429.755 249.955C431.777 250.558 433.765 251.256 435.811 251.741C438.377 252.356 440.79 252.285 442.754 250.026C443.96 248.63 445.462 248.701 446.929 249.896C449.578 252.036 452.488 253.479 456.048 253.113C456.71 253.042 457.432 253.243 458.094 253.42C463.393 254.875 468.704 255.679 473.861 253.089C475.327 252.356 476.451 250.948 477.87 250.061C478.887 249.422 480.117 249.115 481.253 248.666C481.43 248.914 481.596 249.162 481.773 249.411C481.087 252.167 480.283 254.911 479.763 257.702C479.538 258.885 479.727 260.233 480.07 261.404C480.508 262.882 481.359 264.231 481.927 265.686C482.885 268.11 484.032 268.548 486.362 267.259C487.486 266.644 488.61 266.029 490.124 265.201C490.372 266.301 490.585 266.999 490.668 267.708C490.822 269.009 490.81 270.322 491.011 271.611C491.744 276.212 492.288 276.52 496.558 274.935C499.326 273.906 501.951 275.928 501.265 278.933C499.964 284.61 503.737 287.662 507.049 290.938C508.469 292.345 511.662 291.163 512.892 289.27C514.004 287.567 515.329 286.018 516.571 284.397C516.783 284.125 517.126 283.912 517.245 283.605C518.404 280.541 519.658 277.655 523.868 278.436C523.927 278.448 524.649 276.792 524.377 276.271C523.466 274.509 522.248 272.912 521.006 271.032C522.413 271.316 523.703 271.954 524.732 271.682C525.749 271.398 526.459 269.589 527.381 269.518C528.86 269.4 530.657 269.802 531.864 270.641C535.258 272.972 535.081 273.031 537.648 269.553C538.31 268.654 539.694 268.075 540.853 267.815C545.016 266.904 549.771 267.14 553.248 265.13C556.939 263.001 560.511 262.705 564.355 262.256C565.218 262.149 566.59 260.978 566.614 260.269C566.637 259.322 565.798 257.927 564.922 257.454C560.463 254.993 559.955 253.834 561.835 249.139C562.084 248.512 562.498 247.53 562.226 247.175C560.546 244.928 561.717 243.284 563.006 241.462C563.574 240.658 563.929 239.475 563.87 238.494C563.704 235.844 564.958 234.484 567.323 233.727C568.305 233.408 569.192 232.793 570.103 232.284C572.374 231.03 574.467 229.93 576.904 232.379C577.732 233.219 579.695 233.112 581.126 233.1C583.113 233.1 584.45 233.763 585.822 235.312C586.91 236.542 588.791 237.216 590.435 237.796C591.878 238.316 593.593 238.127 595 238.707C596.053 239.132 597.141 240.09 597.673 241.108C599.199 244.017 600.796 244.526 604.001 244.183C608.484 243.698 613.038 243.899 617.556 243.733C620.56 243.627 623.576 243.52 626.557 243.154C628.532 242.905 630.46 242.243 632.388 241.687C633.027 241.498 634.056 241.167 634.138 240.753C634.659 238.103 636.906 238.446 638.645 237.63C641.507 236.282 644.085 234.307 646.652 232.402C649.715 230.143 652.341 227.115 655.665 225.436C661.981 222.254 668.853 222.562 675.595 224.241C679.758 225.282 682.206 224.513 684.418 220.776C685.613 218.765 686.713 216.683 688.085 214.223C690.45 218.375 694.413 220.764 696.364 225.258C698.481 230.131 702.16 232.533 707.518 229.8C709.682 228.7 711.918 228.298 714.603 229.54C712.426 230.853 710.557 232.059 708.618 233.136C706.382 234.378 705.519 236.329 705.365 238.742C704.833 246.797 703.165 254.556 699.38 261.782C698.836 262.812 698.635 264.101 698.576 265.295C698.446 267.649 698.517 270.003 698.493 272.356C698.446 276.283 697.831 276.898 693.939 276.934C691.503 276.957 690.746 278.341 691.964 280.541C694.708 285.544 694.022 288.679 689.386 292.144C684.193 296.036 684.193 297.076 689.398 301.086C689.859 301.441 690.356 301.76 690.876 302.115C688.298 305.001 685.625 307.639 683.389 310.607C682.206 312.181 681.639 314.274 681.059 316.202C680.609 317.692 680.574 319.301 680.349 320.85C679.403 327.616 676.635 328.385 670.639 328.325C669.077 328.314 667.481 328.124 665.979 327.734C663.235 327.024 661.993 328.55 660.857 330.632C659.722 332.714 660.703 334.18 662.135 335.458C663.779 336.924 663.814 338.19 662.383 339.893C661.685 340.733 661.271 342.164 661.366 343.264C662.064 350.585 659.982 357.41 657.948 364.282C657.439 366.009 657.179 367.877 657.155 369.675C657.025 379.634 654.861 389.179 651.206 398.381C650.437 400.321 648.734 401.882 647.516 403.656C646.924 404.52 646.025 405.501 646.073 406.377C646.096 406.968 647.48 407.784 648.367 407.973C650.118 408.34 649.881 409.274 649.514 410.481C647.728 416.217 645.978 421.977 644.156 427.702C643.636 429.322 644.121 430.186 645.28 431.499C646.806 433.214 647.74 435.603 648.438 437.862C649.491 441.304 651.513 443.764 654.423 445.799C658.078 448.342 661.188 451.275 660.42 456.491C660.053 458.975 660.632 461.589 660.23 464.061C659.734 467.183 659.154 470.459 657.735 473.215C656.185 476.231 655.937 478.727 657.818 481.495C658.302 482.216 658.622 483.044 659.083 483.789C660.242 485.634 660.585 486.935 657.628 487.16C655.724 487.302 655.452 488.367 656.552 490.082C657.309 491.253 657.534 492.79 657.912 494.198C658.444 496.149 656.564 496.504 655.736 497.592C655.05 498.503 654.754 500.218 655.121 501.294C655.57 502.643 655.428 503.329 654.447 504.204C653.761 504.819 653.027 505.611 652.779 506.463C650.248 515.121 644.831 522.324 640.797 530.213C637.758 536.174 636.315 542.455 635.83 549.007C635.723 550.439 636.078 551.976 636.539 553.36C637.131 555.111 636.48 555.773 634.883 556.069C633.429 556.341 631.761 556.352 630.602 557.121C628.638 558.41 626.935 560.126 625.256 561.805C623.978 563.071 622.878 564.514 621.778 565.933C620.3 567.849 618.892 569.824 617.449 571.776C616.846 572.663 616.255 573.444 615.64 574.26Z" data-name="Settat" fill="#2bbcb3" stroke="#ffffff" stroke-width="2" class="province-path" /> <path d="M339.651 220.019C339.651 221.166 339.651 222.195 339.651 222.704C337.108 224.963 334.837 226.973 332.436 229.102C330.674 227.009 329.184 226.749 328.296 229.41C325.588 228.014 323.045 226.69 320.502 225.377C320.277 225.258 319.958 225.081 319.769 225.152C316.031 226.619 311.537 226.666 309.136 230.616C308.781 231.208 308.935 232.284 309.195 233.017C309.597 234.153 310.283 235.182 310.839 236.235C309.408 238.34 307.882 240.339 306.64 242.503C306.072 243.497 306.084 244.81 305.788 245.969C305.493 247.116 305.114 248.252 304.783 249.387C304.475 249.363 304.156 249.352 303.849 249.328C303.612 248.393 303.482 247.424 303.092 246.548C302.772 245.827 302.216 244.798 301.625 244.691C301.034 244.585 300.194 245.366 299.591 245.898C298.396 246.951 297.178 248.003 296.184 249.221C295.463 250.12 295.084 251.315 294.552 252.368C295.51 252.746 296.444 253.219 297.426 253.479C297.958 253.621 298.573 253.408 299.768 253.314C298.952 254.556 298.408 255.384 297.876 256.212C296.787 257.891 296.906 259.37 298.715 260.434C300.454 261.463 302.37 260.73 303.163 258.79C303.399 258.222 303.411 257.442 303.813 257.111C304.676 256.413 305.694 255.703 306.735 255.514C307.089 255.455 308.13 256.933 308.142 257.726C308.154 259.677 307.988 261.712 307.456 263.58C306.451 267.14 306.758 267.507 309.384 270.015C310.638 271.209 313.192 271.848 312.743 274.438C312.566 275.491 312.459 276.674 311.915 277.537C310.839 279.24 310.732 280.624 312.518 281.783C314.328 282.954 316.35 282.304 317.285 280.293C317.793 279.205 318.219 278.069 318.681 276.958C318.953 277.005 319.236 277.052 319.509 277.099C319.757 278.732 319.993 280.352 320.254 282.103C319.591 282.292 318.893 282.315 318.468 282.658C317.853 283.167 317.119 283.865 317.013 284.563C316.942 285.083 317.687 286.077 318.255 286.254C320.561 286.999 320.561 288.265 320.159 290.441C319.733 292.759 320.313 295.255 320.478 297.68C320.538 298.543 320.869 299.418 320.762 300.246C320.443 302.671 321.365 304.126 323.814 304.895C322.844 304.895 321.827 304.717 320.904 304.954C320.088 305.167 319.378 305.829 318.633 306.29C319.142 307.012 319.591 307.769 320.171 308.431C320.419 308.715 320.928 308.774 321.839 309.164C317.581 312.24 322.158 316.084 320.384 319.904C319.579 319.289 318.893 318.875 318.349 318.319C317.332 317.29 316.09 316.852 315.251 318.118C314.706 318.934 314.434 320.661 314.919 321.288C315.937 322.613 317.569 323.464 318.905 324.552C319.757 325.25 320.786 325.889 321.294 326.8C323.589 330.904 322.773 332.205 318.101 332.181C318.018 332.181 317.912 332.158 317.841 332.181C316.563 332.643 315.286 333.116 314.009 333.589C314.943 334.594 315.7 335.907 316.835 336.534C319.165 337.823 321.732 338.675 324.121 339.881C324.843 340.248 325.292 341.17 325.86 341.833C325.103 342.436 324.429 343.406 323.577 343.583C318.751 344.577 318.385 345.499 321.164 349.615C321.614 350.278 321.401 351.496 321.271 352.419C321.082 353.779 320.691 355.115 320.384 356.464C321.827 356.594 323.27 356.712 324.701 356.842C324.866 356.854 325.032 356.913 325.789 357.055C325.375 358.155 325.174 359.314 324.571 360.178C322.702 362.827 322.749 363.253 325.742 364.849C324.642 364.956 323.542 365.121 322.43 365.157C320.774 365.192 319.154 365.748 319.248 367.487C319.319 368.93 320.171 370.55 321.176 371.627C321.566 372.041 323.352 371.225 324.464 370.858C324.926 370.704 325.316 369.924 325.694 369.959C330.627 370.326 330.828 365.358 333.453 363.134C334.234 362.472 334.92 361.703 335.642 360.982C335.937 361.23 336.221 361.479 336.517 361.715C335.937 362.567 335.239 363.371 334.825 364.294C334.494 365.015 334.53 365.902 334.4 366.718C335.192 366.789 335.996 366.99 336.765 366.907C338.054 366.789 339.332 366.494 340.621 366.269C340.692 366.529 340.763 366.777 340.834 367.038C339.308 367.901 337.782 368.741 336.268 369.628C334.577 370.61 333.371 372.1 334.542 373.91C335.748 375.766 337.475 375.187 339.036 373.898C339.45 373.543 340.231 373.637 340.846 373.519C340.609 374.17 340.515 374.962 340.077 375.435C339.497 376.05 338.551 376.311 337.948 376.926C337.309 377.576 336.316 378.629 336.493 379.208C337.357 382.165 335.003 382.662 333.371 383.75C329.917 386.045 326.475 388.375 322.962 390.575C322.264 391.012 321.141 391.344 320.419 391.107C315.061 389.357 309.798 388.138 304.606 391.71C304.215 391.97 302.997 391.178 302.264 390.717C301.992 390.551 302.015 389.912 301.909 389.487C300.359 383.703 296.705 380.947 290.684 379.717C287.893 379.149 286.19 378.558 283.493 380.048C281.305 381.255 278.253 380.923 275.58 381.243C275.261 381.278 274.752 381.231 274.622 381.03C272.919 378.57 270.27 379.22 267.975 379.149C266.225 379.09 265.645 378.499 265.55 376.89C265.361 373.519 265.089 370.148 264.864 366.766C264.687 364.116 260.784 359.976 258.205 359.373C256.691 359.018 255.154 358.332 253.924 357.422C252.504 356.369 251.511 356.215 249.985 357.28C248.459 358.344 246.65 359.113 244.852 359.633C244.284 359.799 243.113 358.876 242.675 358.167C242.261 357.504 242.51 356.464 242.344 355.612C241.93 353.412 240.878 351.934 238.311 352.064C236.229 352.17 234.443 351.993 232.74 350.124C231.344 348.586 228.884 349.095 227.347 350.751C225.537 352.702 223.846 353.921 221.031 352.407C220.392 352.064 218.63 352.998 217.896 353.802C216.879 354.914 216.371 356.085 214.372 355.624C212.491 355.186 211.273 357.351 211.994 359.385C212.763 361.526 212.077 362.448 209.794 362.295C209.096 362.247 208.41 362.105 207.713 362.046C205.785 361.893 204.614 362.72 204.791 364.743C204.98 366.931 204.07 368.41 202.225 369.439C199.8 370.787 198.842 373.093 198.286 375.625C197.813 377.777 196.867 379.185 194.383 379.492C193.105 379.658 191.887 380.663 190.74 381.432C187.31 383.762 183.75 384.992 179.681 383.206C179.373 383.076 178.841 382.922 178.699 383.052C175.837 385.986 170.668 384.117 168.267 388.162C167.297 389.794 165.973 389.439 164.612 388.126C160.307 383.987 160.047 383.928 157.386 389.226C154.961 394.052 150.384 396.631 146.906 400.333C146.469 400.794 145.664 401.102 145.002 401.137C140.164 401.409 135.753 403.16 131.447 405.111C129.993 405.773 128.904 407.205 128.065 407.926C125.131 406.814 122.186 405.927 119.466 404.567C118.011 403.846 116.722 402.474 115.776 401.113C114.451 399.185 113.079 398.925 111.518 400.475C109.294 402.675 107.165 404.981 105.154 407.37C104.764 407.831 104.74 409.215 105.131 409.641C106.361 410.978 105.71 411.817 104.717 412.705C102.895 414.325 100.979 415.851 99.2404 417.566C97.8329 418.961 97.005 418.252 96.1179 417.057C93.3738 413.367 90.7481 409.57 87.7912 406.046C85.9697 403.869 83.6988 402.071 81.5106 400.238C81.0967 399.895 80.0085 399.931 79.4644 400.226C77.572 401.243 75.6322 402.261 74 403.621C71.0667 406.069 68.4173 408.849 65.5195 411.332C63.6152 412.965 61.4744 414.349 59.4164 415.792C59.0852 416.028 58.4465 416.277 58.2218 416.123C55.6315 414.36 53.6681 415.768 51.3854 418.098C50.9004 416.241 50.652 415.035 50.2617 413.875C49.5875 411.853 49.2564 409.511 48.0145 407.902C43.8156 402.521 42.2425 396.311 41.2726 389.759C40.6221 385.347 37.0974 382.686 34.3889 379.563C34.0459 379.173 33.5728 378.913 33.1588 378.593C31.6567 377.47 31.3492 376.299 33.0287 375.057C33.3126 374.844 33.5491 374.584 33.8212 374.383C48.4048 363.738 60.7766 350.668 73.4086 337.93C79.4763 331.815 84.9525 325.108 90.6535 318.627C92.1083 316.983 93.6577 315.942 95.9878 315.8C97.3007 315.717 98.8264 314.925 99.7845 313.978C101.44 312.346 102.836 310.418 104.09 308.443C104.598 307.65 104.409 306.42 104.587 305.391C104.681 304.847 104.717 304.197 105.036 303.795C106.171 302.352 107.52 301.086 108.572 299.596C110.429 296.994 111.967 294.167 113.919 291.648C116.887 287.804 119.986 284.031 123.215 280.399C127.793 275.254 132.465 270.192 137.255 265.248C139.951 262.469 140.283 258.766 141.773 255.514C142.447 254.035 143.204 252.332 144.434 251.41C146.894 249.553 145.995 248.003 144.671 246.146C143.618 244.668 142.589 243.142 141.797 241.522C141.513 240.954 141.726 239.818 142.14 239.298C143.476 237.618 144.966 236.045 146.516 234.543C148.172 232.946 150.112 231.622 151.649 229.93C153.518 227.872 154.961 225.436 156.853 223.413C157.74 222.467 159.219 221.663 160.496 221.556C163.087 221.343 164.884 219.77 165.275 217.771C165.831 214.933 167.912 213.348 169.45 211.491C170.964 209.658 173.59 208.735 175.719 207.399C176.594 206.854 177.576 206.381 178.25 205.636C179.752 203.98 180.734 204.607 181.715 206.145C185.382 211.846 189.557 213.218 196.098 211.03C205.17 207.99 212.941 202.738 220.321 196.836C224.674 193.359 228.872 189.681 233.32 186.31C237.164 183.4 238.997 179.095 241.646 175.334C242.9 173.548 244.012 171.667 245.36 169.964C246.898 168.012 248.731 167.101 251.487 166.794C255.993 166.273 260.358 164.535 264.77 163.305C265.609 163.068 266.426 162.631 267.265 162.607C274.35 162.418 280.299 159.543 285.989 155.498C287.881 154.162 290.743 153.973 293.204 153.689C298.431 153.109 302.997 150.85 307.728 148.816C316.93 144.877 326.274 141.293 335.618 137.709C336.398 137.414 337.924 137.84 338.504 138.478C342.312 142.677 346.026 146.959 349.575 151.382C350.332 152.329 350.249 153.961 350.556 155.274C350.911 156.788 350.911 158.514 351.668 159.792C354.436 164.487 355.749 169.207 353.099 174.399C352.804 174.967 352.839 175.736 352.815 176.41C352.804 176.836 353.182 177.392 353.017 177.675C350.355 182.3 355.015 184.394 356.34 187.646C356.636 188.356 356.6 189.716 356.139 190.154C352.141 193.903 353.915 198.398 354.684 202.549C355.027 204.418 355.134 205.624 353.726 206.914C352.118 208.38 350.533 209.906 349.125 211.562C347.718 213.206 346.452 213.005 345.222 211.562C344.039 210.178 342.927 208.723 341.922 207.221C340.716 205.423 339.403 205.163 338.326 206.985C336.931 209.374 335.665 211.917 334.873 214.554C334.068 217.559 335.559 219.084 339.651 220.019Z" data-name="El Jadida" fill="#2bbcb3" stroke="#ffffff" stroke-width="2" class="province-path" /> <path d="M320.514 393.343C319.982 394.549 319.544 395.578 319.083 396.583C318.054 398.842 318.243 400.936 319.65 403.018C321.862 406.306 322.028 409.842 320.632 413.485C319.568 416.277 318.598 419.115 317.344 421.824C316.824 422.959 315.842 424.13 314.765 424.71C312.412 425.963 311.123 427.572 311.501 430.328C311.915 433.308 311.3 435.958 309.372 438.418C307.539 440.76 308.118 443.09 310.555 444.994C312.542 446.544 314.6 448.022 316.492 449.678C320.632 453.309 321.306 459.578 317.77 463.789C315.511 466.473 315.085 469.028 316.433 472.21C316.776 473.002 316.457 474.658 315.83 475.167C313.961 476.669 311.856 477.923 309.715 479.011C308.047 479.862 307.148 480.868 306.51 482.748C305.847 484.676 304.05 486.202 302.831 487.964C301.471 489.94 300.004 491.879 298.964 494.02C297.816 496.374 296.444 497.793 293.594 497.711C292.541 497.675 291.406 498.692 290.388 499.355C288.555 500.549 286.793 501.862 284.983 503.092C284.203 503.624 282.831 503.932 282.653 504.582C281.589 508.45 277.863 507.8 275.367 509.219C273.972 510.011 272.469 510.863 271.452 512.058C269.501 514.364 267.313 515.322 264.308 514.754C263.279 514.553 262.12 514.955 261.032 515.145C259.684 515.381 258.3 516.079 257.011 515.902C254.456 515.547 252.8 516.659 252.031 518.764C249.831 524.843 244.946 528.498 240.192 532.259C239.482 532.815 238.252 532.993 237.294 532.922C234.703 532.721 232.149 532.236 229.57 531.975C227.323 531.739 225.939 533.158 225.04 534.921C223.254 538.398 221.634 541.97 219.942 545.506C219.528 546.37 219.174 547.269 218.748 548.12C218.156 549.291 217.494 549.717 216.051 549.031C214.975 548.522 213.473 548.463 212.278 548.724C208.493 549.528 204.779 550.687 200.994 551.491C199.386 551.834 198.38 552.343 197.801 554.034C197.529 554.815 196.24 555.619 195.317 555.749C191.911 556.222 188.351 556.021 185.062 556.861C183.099 557.37 181.159 559.073 179.835 560.741C177.67 563.437 175.553 564.029 172.856 561.935C170.68 560.232 169.438 560.421 167.877 562.586C166.528 564.454 165.949 567.009 162.779 567.139C162.034 567.175 161.466 569.41 160.626 570.498C160.082 571.208 159.207 571.669 158.474 572.249C157.87 571.315 156.64 570.262 156.794 569.446C157.279 566.725 158.072 564.017 159.077 561.427C159.988 559.097 159.822 557.382 157.527 556.116C157.303 555.986 157.113 555.773 156.877 555.678C152.666 553.928 149.828 551.148 149.485 546.299C149.425 545.554 148.609 544.868 148.124 544.134C148.834 543.673 149.544 543.212 150.845 542.372C149.52 541.568 148.633 540.823 147.616 540.456C145.227 539.616 143.18 538.564 142.163 535.997C141.868 535.24 140.815 534.755 140.058 534.223C138.591 533.194 138.414 531.562 139.739 530.592C142.151 528.841 142.352 526.357 142.045 523.708C141.868 522.158 141.406 520.597 141.501 519.06C141.726 515.405 140.354 512.507 138.059 509.775C133.257 504.038 128.1 498.527 125.06 491.525C124.197 489.549 122.801 488.591 120.554 488.71C119.56 488.769 118.378 488.568 117.562 488.047C114.948 486.356 112.464 486.841 109.341 488.402C109.046 487.941 108.75 487.125 108.182 486.652C106.136 484.96 104.362 485.895 103.013 487.621C101.263 489.845 99.1102 490.661 96.4017 490.188C95.0415 486.498 94.7931 486.084 88.7728 491.832C88.4298 491.04 88.2997 489.881 87.6847 489.49C86.6911 488.863 85.3901 488.556 84.1954 488.485C81.9245 488.355 79.6299 488.497 77.3472 488.509C75.9042 488.52 74.3903 489.727 73.0064 488.189C72.9 488.071 71.8118 488.591 71.386 489.029C69.5882 490.85 67.8613 490.815 66.442 488.816C64.4313 485.989 62.7873 485.883 59.854 488.012C58.5056 488.993 56.897 489.691 55.3003 490.247C54.6498 490.472 53.5261 490.271 53.0175 489.821C51.4562 488.402 50.2262 488.71 49.0316 490.188C47.7542 491.761 46.8434 492.175 45.1994 490.212C41.7457 486.096 37.9135 482.311 34.2351 478.396C33.9394 478.076 33.6082 477.745 33.4426 477.367C30.2491 469.868 23.9686 465.634 17.2031 461.861C16.5171 461.482 15.9494 460.382 15.8548 459.554C15.6773 458.099 15.9021 456.597 15.973 455.119C16.1031 452.41 14.7548 449.926 12.2118 449.169C10.3785 448.625 10.1183 447.478 10.7097 446.26C12.3301 442.924 13.9623 439.553 16.0676 436.537C17.688 434.207 19.9708 432.315 22.0761 430.363C23.6374 428.92 23.732 427.466 22.2772 426.094C20.3848 424.308 18.2794 422.746 16.316 421.019C13.5247 418.571 10.6151 416.217 8.06027 413.544C6.14418 411.545 4.71301 409.085 3.05712 406.838C2.80874 406.495 2.57219 405.998 2.22919 405.892C-1.14172 404.804 -0.124527 403.077 1.5905 401.374C5.80117 397.222 10.0592 393.118 14.3053 389.014C14.601 388.718 15.0386 388.529 15.4408 388.399C19.0246 387.239 21.8277 385.028 24.4535 382.343C29.09 377.588 31.4437 378.215 35.6899 383.289C38.9188 387.145 40.1253 391.45 40.8941 396.087C41.6274 400.498 43.6618 404.236 46.0273 407.973C47.5531 410.398 48.5112 413.308 49.1617 416.123C50.0606 420.014 50.6756 420.404 53.8455 418.252C54.5788 417.755 55.8089 418.027 56.8142 417.932C57.9733 417.814 59.4873 418.11 60.2443 417.495C64.8926 413.698 69.2688 409.57 73.9408 405.809C75.845 404.271 78.2579 403.372 80.7181 402.024C82.3503 403.313 84.4675 404.508 85.9341 406.247C89.0685 409.96 91.848 413.97 94.7813 417.861C95.3609 418.618 95.8221 419.624 96.5909 420.038C97.3006 420.404 98.6608 420.499 99.193 420.061C101.677 418.015 104.007 415.78 106.349 413.556C108.655 411.356 108.667 410.398 106.242 408.328C108.158 406.318 110.027 404.283 111.967 402.332C112.972 401.314 114.108 401.409 114.758 402.71C116.225 405.679 119.04 406.211 121.808 407.086C123.345 407.571 124.883 408.588 125.983 409.759C127.662 411.545 128.644 411.723 129.59 409.511C130.418 407.607 131.92 407.169 133.588 406.294C137.704 404.153 142.66 404.354 146.362 402.367C150.963 399.895 154.381 395.188 158.261 391.403C158.734 390.941 158.852 390.149 159.219 389.558C160.697 387.157 161.312 387.086 163.347 389.049C163.914 389.593 164.47 390.149 165.026 390.705C166.079 391.781 167.167 391.852 168.172 390.693C172.076 386.199 177.292 385.678 182.768 385.584C184.79 385.548 186.884 385.051 188.812 384.377C191.402 383.478 193.981 382.414 196.311 380.983C197.647 380.166 198.96 378.641 199.398 377.174C200.344 374.028 201.538 371.39 204.685 369.817C205.513 369.403 206.163 367.948 206.246 366.919C206.423 364.66 207.015 363.596 209.605 363.962C213.295 364.471 214.667 362.496 214.064 358.936C215.933 357.504 217.731 356.464 219.067 355.021C220.191 353.791 221.173 353.921 222.273 354.571C224.106 355.671 225.466 355.375 226.732 353.66C227.335 352.832 228.222 352.194 229.062 351.567C230.15 350.763 230.8 350.585 231.959 352.04C232.941 353.27 235.177 353.956 236.903 354.051C239.659 354.193 240.747 355.21 240.984 357.942C241.268 361.337 243.338 362.342 246.389 360.899C248.057 360.107 249.713 359.279 251.428 358.569C251.806 358.415 252.398 358.604 252.847 358.77C254.397 359.373 255.922 360.059 257.472 360.674C260.015 361.691 262.262 363.276 262.759 365.997C263.469 369.912 263.681 373.921 263.93 377.895C264.131 381.16 264.379 381.195 267.667 381.03C269.56 380.935 271.511 381.952 273.439 382.449C274.326 382.674 275.249 383.052 276.124 382.981C281.198 382.556 286.272 381.716 291.347 381.645C294.422 381.609 297.189 383.336 298.692 386.27C299.638 388.115 300.3 390.125 301.022 392.089C301.968 394.667 302.476 394.951 304.747 393.532C309.798 390.35 314.919 390.669 320.514 393.343Z" data-name="Sidi Bennour" fill="#2bbcb3" stroke="#ffffff" stroke-width="2" class="province-path" /> <path d="M562.604 180.218C565.68 183.093 564.686 185.659 564.118 188.297C563.929 189.184 564.544 190.237 564.863 191.467C562.38 193.726 562.332 193.856 565.81 195.547C569.393 197.286 573.119 198.741 576.691 200.491C578.797 201.508 580.831 202.727 582.723 204.087C584.912 205.66 587.123 206.89 589.915 206.63C590.08 206.618 590.269 206.665 590.423 206.724C591.89 207.292 595.083 213.111 594.468 214.566C593.439 216.955 592.209 219.274 590.861 221.485C589.323 224.017 587.49 226.358 585.905 228.866C583.8 232.19 579.341 232.887 576.608 230.061C575.284 228.688 574.136 228.487 572.481 229.386C569.961 230.758 567.265 231.811 564.769 233.219C563.917 233.703 563.184 234.78 562.876 235.738C562.037 238.352 562.048 241.261 559.458 243.13C559.056 243.414 559.399 244.798 559.47 245.661C559.576 246.939 560.227 248.37 559.837 249.458C558.169 254.189 559.103 256.803 563.598 258.873C564.024 259.062 564.343 259.488 564.899 259.961C564.296 260.351 563.858 260.872 563.503 260.824C558.642 260.174 554.656 262.776 550.315 264.16C546.885 265.248 543.207 265.698 539.599 266.1C537.671 266.313 536.808 267.306 536.217 268.844C535.507 270.701 534.632 270.736 533.118 269.542C528.694 266.029 527.843 266.147 524.176 270.358C523.573 270.015 522.958 269.518 522.26 269.305C521.361 269.045 520.391 269.009 519.445 268.879C519.457 269.944 519.137 271.174 519.575 272.037C520.368 273.61 521.598 274.97 522.899 276.756C521.952 276.875 521.515 277.064 521.172 276.958C518.995 276.342 517.777 277.336 517.304 279.335C516.76 281.629 515.885 283.557 513.578 284.681C512.857 285.036 512.431 286.148 512.053 286.999C510.929 289.542 508.705 290.181 506.647 288.289C504.234 286.065 502.377 283.569 502.638 279.903C502.756 278.282 502.366 276.39 501.573 274.982C500.426 272.912 498.628 272.049 496.073 273.386C493.743 274.616 492.986 273.953 492.75 271.363C492.56 269.376 492.217 267.401 491.922 265.425C491.638 263.592 490.739 263.095 488.989 263.935C484.317 266.159 484.222 266.159 481.939 261.581C481.419 260.529 481.312 259.086 481.502 257.891C481.845 255.656 482.507 253.479 483.098 251.291C483.489 249.813 484.565 247.79 482.495 247.282C480.815 246.88 478.119 247.199 477.054 248.323C473.139 252.462 469.189 253.799 463.89 252.427C461.17 251.729 458.189 252.036 455.433 251.433C452.878 250.877 450.253 250.026 448.017 248.713C445.309 247.116 443.948 247.057 441.287 248.949C440.104 249.801 438.271 250.381 436.875 250.156C434.155 249.718 431.541 248.63 428.868 247.826C428.17 247.613 427.461 247.435 426.763 247.234C426.585 247.424 426.42 247.601 426.242 247.79C426.94 248.997 427.626 250.215 428.348 251.421C429.424 253.231 429.992 254.745 427.567 256.2C425.545 257.406 425.828 261.759 427.815 263.722C429.424 265.319 431.044 266.916 432.807 268.323C433.445 268.832 434.522 268.808 435.409 268.997C436.651 269.27 437.893 269.506 439.135 269.766C439.135 270.074 439.135 270.369 439.135 270.677C438.567 270.937 438.023 271.268 437.431 271.434C436.178 271.801 434.865 271.966 433.658 272.404C429.755 273.835 429.72 274.178 431.517 277.987C432.026 279.075 432.452 280.79 431.931 281.594C431.423 282.386 429.696 282.647 428.49 282.694C426.148 282.765 424.433 284.031 423.688 286.254C422.954 288.454 421.937 290.548 421.014 292.688C420.778 293.244 420.388 293.741 420.127 294.285C418.471 297.904 419.193 300.365 422.635 302.848C417.561 305.344 410.429 304.977 406.62 300.341C404.692 297.987 402.338 295.988 400.186 293.824C398.802 292.428 397.252 291.908 395.502 293.091C393.633 294.356 392.486 293.635 391.504 291.884C390.262 289.684 389.458 289.601 388.133 291.86C386.82 294.096 385.732 296.521 384.928 298.981C384.396 300.613 383.485 300.956 381.995 301.358C378.068 302.423 374.626 301.429 371.279 299.537C370.912 299.324 370.486 299.182 370.084 299.052C369.942 299.004 369.753 299.123 369.185 299.253C369.02 300.98 368.866 302.86 368.641 304.717C368.263 307.84 367.671 308.195 364.856 307.035C364.064 306.704 363.129 306.409 362.585 305.794C359.901 302.766 356.53 302.293 352.686 302.186C348.711 302.091 344.785 300.98 340.811 300.483C335.5 299.809 330.177 299.099 324.843 298.792C322.832 298.673 321.862 298.188 321.803 296.272C321.732 294.285 321.555 292.239 321.898 290.299C322.667 285.899 322.785 285.911 318.456 284.409C319.142 284.161 319.568 283.924 320.029 283.853C322.016 283.534 323.164 282.824 322.075 280.53C321.744 279.82 322.182 278.767 321.91 277.987C321.579 277.029 321.023 275.609 320.325 275.444C319.39 275.231 317.983 275.787 317.214 276.484C316.445 277.182 316.363 278.613 315.665 279.441C315.192 280.009 314.163 280.116 313.382 280.423C313.465 279.642 313.417 278.803 313.666 278.081C314.009 277.064 314.506 276.07 315.073 275.148C315.475 274.486 316.15 273.989 316.623 273.362C317.143 272.652 317.569 271.883 318.042 271.138C317.344 270.724 316.682 270.026 315.949 269.956C314.198 269.778 312.519 269.92 311.702 267.72C311.513 267.211 309.786 267.282 308.367 267.01C308.781 265.449 309.538 263.699 309.668 261.901C309.834 259.618 309.822 257.217 309.254 255.017C308.745 253.054 306.522 253.255 305.268 253.976C303.825 254.804 302.855 256.448 301.625 257.69C301.152 258.175 300.525 258.506 299.969 258.908C299.851 258.151 299.532 257.359 299.674 256.649C299.792 256.022 300.584 255.537 300.762 254.911C301.022 253.976 301.424 252.687 300.998 252.084C300.62 251.54 299.212 251.646 298.254 251.575C297.781 251.54 297.296 251.741 296.042 251.989C298.148 250.097 299.685 248.725 301.329 247.246C301.389 247.365 301.59 247.625 301.637 247.92C301.921 249.505 302.311 251.587 304.239 251.031C305.528 250.653 307.101 248.701 307.196 247.365C307.397 244.739 308.438 242.704 309.834 240.694C310.224 240.126 310.673 239.44 311.253 239.215C314.103 238.092 313.571 236.601 312.093 234.614C310.129 231.965 310.673 230.25 313.642 228.854C313.95 228.712 314.399 228.476 314.6 228.582C316.327 229.564 317.474 229.055 318.503 227.447C318.693 227.163 320.337 227.257 320.538 227.612C321.413 229.162 322.572 229.658 324.228 229.244C324.311 229.221 324.429 229.221 324.488 229.268C326.57 231.137 328.711 231.007 331.419 230.38C334.092 229.765 336.482 229.138 338.445 227.21C338.93 226.737 339.651 226.465 340.018 225.933C340.692 224.963 341.26 223.886 341.733 222.798C341.958 222.278 341.686 221.556 341.887 221.012C342.762 218.659 341.709 218.044 339.545 218.044C336.896 218.044 335.843 216.329 336.931 213.892C337.794 211.94 338.741 210.036 339.758 207.884C341.461 209.835 342.786 211.55 344.312 213.064C346.606 215.335 347.753 215.288 349.965 213.076C351.94 211.101 353.963 209.173 355.784 207.067C356.447 206.299 356.991 205.045 356.896 204.087C356.601 201.035 355.808 198.031 355.583 194.979C355.512 193.998 356.4 192.744 357.192 191.94C359.806 189.231 359.841 188.451 357.168 185.86C356.754 185.458 356.506 184.867 356.246 184.334C355.666 183.14 355.122 181.933 354.483 180.561C355.016 176.54 355.808 172.223 356.045 167.87C356.151 165.812 355.465 163.577 354.625 161.649C353.573 159.248 352.402 157.142 352.354 154.245C352.283 149.857 348.274 147.361 345.814 144.156C343.98 141.755 341.851 139.566 339.509 136.905C341.698 135.628 343.543 134.54 345.4 133.487C348.428 131.76 351.444 130.021 354.507 128.366C355.56 127.798 356.778 126.958 357.842 127.076C364.064 127.751 369.386 125.208 374.792 122.783C378.281 121.21 380.209 121.884 382.527 125.302C383.166 126.237 383.603 127.301 384.218 128.259C386.643 132.056 390.463 132.15 392.616 128.957C396.507 128.957 400.079 128.981 403.651 128.945C405.39 128.933 406.478 129.56 407.306 131.252C408.749 134.185 410.925 134.859 414.663 133.345C416.922 132.434 418.353 132.482 419.571 134.776C420.518 136.562 422.315 136.491 423.971 135.935C425.746 135.356 426.822 135.711 428.265 137.13C430.24 139.07 432.901 140.3 435.113 141.731C435.054 142.748 434.51 144.617 435.007 144.96C436.036 145.658 437.68 145.882 438.969 145.681C440.802 145.386 441.571 145.942 441.914 147.645C442.245 149.324 442.718 150.968 443.168 152.825C440.305 153.772 437.242 154.659 434.285 155.83C433.41 156.173 432.511 157.154 432.156 158.053C430.926 161.27 430.051 164.618 428.797 167.823C427.2 171.868 427.804 174.636 431.305 177.261C435.208 180.183 438.271 183.53 438.449 188.782C438.508 190.65 439.643 190.911 441.145 189.905C442.08 189.278 443.038 188.628 444.079 188.226C444.741 187.966 445.663 187.906 446.314 188.167C448.467 189.018 450.655 189.846 452.595 191.064C454.097 192.011 455.551 193.312 456.498 194.802C459.845 200.018 465.002 201.201 470.549 201.13C473.021 201.094 474.192 201.698 474.949 204.004C475.339 205.187 476.558 206.098 477.409 207.127C478.391 206.239 480.023 205.494 480.236 204.453C481.277 199.285 481.963 194.033 482.708 188.805C482.779 188.344 482.507 187.729 482.199 187.351C480.496 185.281 480.863 183.376 482.081 181.141C483.063 179.343 483.926 178.279 486.197 178.397C488.622 178.527 492.052 175.18 492.856 172.164C493.873 168.32 494.772 164.44 495.588 160.537C496.239 157.438 499.539 154.481 503.43 154.316C507.381 154.15 509.817 152.423 512.053 149.159C513.33 147.29 516.37 146.651 518.581 145.386C519.705 144.747 520.71 143.919 521.822 143.257C522.591 142.795 523.407 142.299 524.271 142.133C526.991 141.636 529.747 141.388 532.455 140.856C534.998 140.359 535.755 141.009 536.311 143.588C537.648 149.821 539.327 156.007 543.869 160.797C544.91 161.897 546.649 162.453 548.163 162.974C551.758 164.215 555.283 165.777 559.304 165.244C560.333 165.114 561.599 165.895 562.604 166.51C565.443 168.249 566.484 168.024 568.057 165.244C568.577 164.334 568.613 162.418 570.423 163.317C572.067 164.133 571.487 165.718 570.73 166.711C568.731 169.349 568.116 172.093 569.192 175.251C569.429 175.96 569.228 176.812 569.263 177.593C569.334 179.615 568.4 180.467 566.366 180.218C565.384 180.124 564.426 180.218 562.604 180.218Z" data-name="Berrechid" fill="#2bbcb3" stroke="#ffffff" stroke-width="2" class="province-path" /> <path d="M565.135 193.974C567.394 192.07 568.518 190.946 566.472 188.935C565.809 188.273 566.602 186.156 566.685 184.713C566.768 183.093 567.158 181.886 569.145 181.673C569.724 181.614 570.399 180.585 570.647 179.864C570.919 179.083 570.848 178.137 570.777 177.273C570.446 173.5 570.032 169.822 572.457 166.356C573.568 164.771 571.7 160.584 569.949 159.496C568.672 158.716 567.749 159.118 567.335 160.49C567.17 161.046 567.359 161.696 567.288 162.299C566.945 165.457 565.395 166.25 562.746 164.558C560.984 163.423 559.304 162.867 557.092 163.577C555.933 163.955 554.419 163.222 553.059 163.021C545.194 161.826 541.362 156.669 539.611 149.431C538.972 146.805 538.511 144.12 537.565 141.613C537.163 140.536 535.85 139.507 534.714 139.093C533.33 138.597 532.739 138.194 532.857 136.586C532.976 135.013 532.538 133.404 532.384 132.139C535.98 129.312 539.587 126.52 543.147 123.682C544.508 122.594 545.525 122.546 547.311 123.327C549.381 124.238 551.983 124.025 554.372 124.108C554.751 124.119 555.519 123.126 555.496 122.617C555.401 119.944 556.607 118.395 558.878 117.011C561.197 115.592 561.433 112.54 559.754 110.281C558.772 108.968 558.429 108.057 559.718 106.697C560.156 106.236 560.073 104.639 559.6 104.083C558.464 102.711 558.571 101.694 559.624 100.405C562.048 97.4478 564.497 94.5027 566.732 91.4038C568.766 88.5888 570.541 85.5728 572.421 82.6513C572.563 82.4384 572.74 82.1072 572.681 81.9298C571.451 78.6654 573.663 77.317 575.875 75.8267C576.502 75.4009 576.738 74.3601 577.105 73.5794C578.264 71.1429 577.921 68.2451 580.145 66.0215C581.576 64.5903 579.802 63.1355 578.3 62.5087C576.88 61.9173 575.544 61.4442 575.283 59.67C575.248 59.4453 575.023 59.2087 574.822 59.055C573.06 57.7184 571.274 56.4055 569.5 55.069C569.228 54.8679 568.814 54.6196 568.79 54.3593C568.494 51.0594 566.377 49.853 563.479 48.8121C562.06 48.3035 561.007 46.1627 560.274 44.5423C559.517 42.8628 559.21 40.923 559.044 39.0661C558.985 38.451 559.836 37.5876 560.475 37.1145C562.699 35.4468 565.1 33.992 567.288 32.2651C575.224 26.0319 583.042 19.6449 591.038 13.4827C593.806 11.3418 596.999 9.93434 600.725 10.1118C604.664 10.2892 608.259 9.13005 611.654 7.07203C613.345 6.04301 615.309 5.46345 617.154 4.671C620.489 3.23984 623.86 1.86782 627.16 0.365698C628.65 -0.308484 629.727 -0.0955928 630.389 1.38288C631.453 3.74842 632.352 6.18494 633.452 8.52683C634.186 10.0881 634.872 11.8741 636.125 12.9386C637.249 13.8966 639.26 14.6418 640.608 14.3224C642.867 13.7902 644.913 12.3472 647.445 11.0816C647.445 12.3709 647.622 13.7784 647.397 15.1267C647.125 16.8417 647.338 18.1546 648.805 19.2783C649.503 19.8105 649.881 20.7804 650.366 21.5728C650.591 21.9395 650.638 22.6255 650.91 22.7201C653.205 23.4771 653.808 25.0502 654.435 27.3448C654.932 29.1544 655.842 30.7393 655.369 32.7264C655.239 33.2823 655.251 34.0984 655.57 34.5124C658.48 38.3209 657.049 43.3241 659.154 47.3455C659.343 47.7122 659.556 48.4218 659.391 48.5638C657.415 50.3379 658.776 52.6088 658.35 54.5841C657.936 56.5238 658.645 57.4109 660.077 58.4636C660.928 59.0786 661.567 60.3087 661.803 61.3732C662.371 63.9753 662.466 66.6011 664.406 68.8128C665.636 70.2203 666.487 72.0773 667.102 73.8751C667.386 74.7031 666.972 76.0869 666.393 76.8557C663.708 80.3686 663.897 82.8997 667.599 85.3599C669.302 86.4953 668.734 87.5598 668.321 88.9318C668.025 89.9372 667.587 91.7232 667.977 91.9716C668.959 92.5984 670.355 92.5984 671.597 92.7522C672.732 92.8941 673.891 93.0242 675.027 92.9414C675.973 92.8705 676.872 92.3382 677.818 92.2554C678.682 92.1727 679.924 92.0662 680.385 92.5511C683.105 95.4844 685.967 97.8263 690.367 96.7736C690.9 96.6435 691.538 96.9984 692.13 97.1048C693.561 97.365 694.992 97.6252 696.423 97.8854C696.506 97.6844 696.589 97.4833 696.672 97.2704C697.121 98.0865 697.464 99.0091 698.067 99.7069C699.215 101.055 700.504 101.706 701.994 99.9908C702.302 99.636 703.082 99.4585 703.579 99.5413C709.174 100.476 713.845 102.392 714.33 109.169C714.472 111.121 716.388 111.629 718.376 110.849C719.901 110.245 721.569 109.879 723.201 109.69C726.205 109.335 729.233 109.134 732.261 108.98C732.995 108.944 733.74 109.37 734.485 109.488C735.218 109.607 736.082 109.855 736.697 109.595C738.932 108.625 739.287 108.684 741.215 111.192C737.596 113.096 739.796 115.887 740.328 118.324C740.612 119.601 740.718 120.145 739.358 120.666C738.258 121.103 737.335 122.002 736.519 122.984C734.13 122.937 733.326 124.202 732.995 126.544C732.817 127.798 731.563 128.91 730.795 130.081C727.317 127.727 726.395 127.904 724.171 131.039C723.367 132.174 722.373 133.239 721.817 134.492C720.978 136.373 720.162 137.579 717.772 136.621C717.335 136.444 715.572 137.911 715.632 138.466C715.868 140.442 716.069 142.914 717.311 144.191C720.374 147.361 724.029 149.963 727.412 152.825C728.867 154.055 730.582 155.167 731.575 156.728C732.486 158.148 732.912 160.076 732.971 161.803C733.042 163.825 731.563 164.724 729.588 164.417C728.488 164.239 727.447 163.636 726.336 163.47C725.366 163.328 723.911 163.151 723.473 163.671C722.894 164.357 722.811 165.765 723.012 166.758C723.296 168.19 724.017 169.538 724.55 170.922C724.739 171.407 725.106 171.915 725.07 172.388C724.893 174.991 723.509 177.652 725.496 180.136C723.852 182.371 722.444 184.843 720.493 186.759C718.86 188.368 718.411 189.811 718.683 192.046C719.842 201.556 721.096 211.065 721.605 220.61C721.735 223.023 719.357 225.649 717.855 228.002C717.571 228.452 715.785 228.381 714.981 227.967C712.166 226.536 709.528 226.938 706.997 228.416C703.011 230.723 700.267 229.327 698.115 225.128C696.825 222.609 695.536 220.326 693.537 218.316C691.822 216.589 690.438 214.542 688.842 212.709C688.428 212.236 687.671 211.633 687.221 211.739C686.736 211.858 686.382 212.697 686.074 213.277C684.737 215.879 683.519 218.552 682.1 221.107C681.106 222.893 679.474 223.342 677.392 223.035C673.537 222.455 669.645 221.876 665.754 221.805C658.03 221.663 651.537 224.395 646.439 230.463C643.423 234.058 639.65 236.719 634.635 236.98C633.239 237.051 631.986 237.382 631.678 239.298C631.56 239.996 630.105 240.694 629.135 240.989C624.179 242.551 619.153 242.965 613.925 242.302C610.767 241.9 607.49 242.361 604.273 242.598C601.884 242.763 600.264 242.491 599.199 239.759C598.679 238.435 596.325 237.607 594.645 237.003C592.871 236.365 590.849 236.436 589.039 235.868C586.07 234.945 585.384 232.639 587.028 230.049C589.926 225.507 593.025 221.071 595.556 216.328C597.46 212.757 596.23 211.432 593.936 208.108C592.067 205.388 589.808 205.435 587.3 204.631C584.415 203.708 581.895 201.579 579.222 199.994C578.489 199.557 577.779 199.072 577.01 198.752C573.261 197.203 569.5 195.725 565.135 193.974Z" data-name="Benslimane" fill="#2bbcb3" stroke="#ffffff" stroke-width="2" class="province-path" /> <path d="M473.789 131.985C475.161 134.078 475.02 135.368 473.316 136.42C473.056 136.574 473.234 137.84 473.553 138.395C473.92 139.022 474.594 139.614 475.268 139.886C477.929 140.962 479.396 143.316 481.312 145.208C482.081 145.965 483.275 146.273 484.446 146.864C483.476 149.951 486.256 150.862 487.9 152.435C488.574 153.074 489.556 153.393 490.348 153.925C492.808 155.605 494.843 157.403 493.849 160.951C492.868 164.464 492.56 168.19 491.342 171.608C490.384 174.293 488.456 176.682 485.251 177.108C480.898 177.699 478.296 182.596 479.774 186.783C481.821 192.626 480.815 198.433 478.603 204.075C478.509 204.3 478.284 204.489 478.083 204.654C477.953 204.761 477.775 204.785 477.267 204.974C476.877 204.229 476.273 203.472 476.096 202.644C475.611 200.302 474.18 199.77 471.956 199.58C468.609 199.297 465.238 198.717 461.997 197.83C460.744 197.487 459.632 196.127 458.756 194.991C456.403 191.928 454.309 188.616 449.803 188.569C449.495 188.569 449.058 188.368 448.892 188.119C446.408 184.465 443.735 186.014 441.027 187.764C440.885 187.859 440.695 187.859 440.329 187.966C439.915 186.617 439.82 185.032 439.028 183.932C437.23 181.425 435.337 178.882 433.043 176.859C429.199 173.477 428.773 171.206 431.269 166.64C432.31 164.736 432.747 162.406 433.031 160.218C433.291 158.195 433.883 157.036 436.059 156.705C438.543 156.326 440.991 155.628 443.428 154.99C445.178 154.529 445.864 153.594 445.001 151.69C444.185 149.892 443.534 147.976 443.108 146.036C442.647 143.872 441.843 142.866 439.525 143.872C438.626 144.262 437.585 144.333 436.65 144.534C436.473 144.073 436.307 143.872 436.355 143.777C437.857 140.974 437.727 141.234 434.699 139.661C432.534 138.537 430.606 136.787 428.939 134.977C427.91 133.865 427.224 133.262 425.686 133.806C423.261 134.658 420.99 134.977 419.5 131.961C419.169 131.275 417.442 131.039 416.354 131.039C415.266 131.039 414.178 131.618 413.089 131.902C410.937 132.47 409.352 131.902 408.441 129.714C407.625 127.75 406.3 126.934 403.947 127.041C400.469 127.206 396.968 126.639 393.479 126.615C392.521 126.603 391.315 127.171 390.629 127.881C388.819 129.749 387.565 129.891 385.992 127.916C384.372 125.882 382.74 123.847 381.344 121.671C380.149 119.779 381.592 118.903 383.106 118.135C388.275 115.532 393.455 112.966 398.541 110.198C400.079 109.358 401.297 107.939 402.669 106.78C405.638 110.565 408.406 110.896 412.262 108.14C412.605 107.892 413.019 107.442 413.35 107.49C417.371 108.069 420.115 105.053 423.533 103.953C424.468 103.646 425.497 103.551 426.49 103.515C427.898 103.456 429.471 103.965 430.666 103.48C432.664 102.676 434.096 103.232 435.397 104.533C437.537 106.709 439.584 108.968 441.618 111.239C442.008 111.665 442.339 112.303 442.363 112.871C442.529 116.077 444.693 117.425 447.354 118.123C449.46 118.679 450.595 119.684 451.045 121.931C451.222 122.854 452.76 124.261 453.588 124.202C459.135 123.859 464.682 123.351 470.17 122.499C472.205 122.18 472.619 120.015 471.933 118.229C470.892 115.509 472.039 114.48 474.487 113.735C476.605 113.096 478.532 111.819 480.65 111.192C481.631 110.896 483.204 111.085 483.938 111.724C486.504 113.948 488.87 116.396 491.2 118.868C493.589 121.411 493.317 122.594 490.124 124.143C484.813 126.721 479.502 129.253 473.789 131.985Z" data-name="Nouaceur" fill="#2bbcb3" stroke="#ffffff" stroke-width="2" class="province-path" /> <path d="M553.674 123.634C552.172 122.877 550.824 122.558 550.02 121.718C548.305 119.932 546.85 117.898 545.336 115.923C545.099 115.615 544.886 115.012 545.028 114.716C546.247 112.185 544.567 110.766 542.982 109.394C540.167 106.957 537.518 104.19 534.348 102.368C531.545 100.76 528.162 99.8843 524.933 99.3757C522.638 99.0091 522.059 97.507 521.479 96.0048C520.841 94.3489 520.131 93.4619 518.215 93.2844C515.826 93.0715 514.797 91.3447 515.849 89.1566C518.357 83.9878 520.888 78.7955 523.868 73.8988C524.897 72.2074 527.251 71.2612 529.108 70.1494C532.006 68.4225 532.278 67.6892 530.433 64.8032C528.883 62.3785 527.31 59.9657 525.643 57.6238C524.649 56.2163 524.72 55.1873 526.092 54.0755C530.149 50.7874 534.064 47.31 538.239 44.1756C539.162 43.4778 541.137 43.395 542.261 43.8799C546.992 45.9025 551.25 45.3584 555.046 41.9402C555.756 41.3015 556.75 40.994 557.613 40.5209C557.755 41.4434 557.873 42.366 558.039 43.2886C558.157 43.9391 558.157 44.7552 558.547 45.2047C560.393 47.3218 561.445 49.9358 564.071 51.6626C566.673 53.3776 568.388 56.4174 570.505 58.8539C570.943 59.3625 571.487 59.7646 571.996 60.2141C572.658 60.7936 573.308 61.3732 573.994 61.9054C574.787 62.5205 575.544 63.2183 576.431 63.6205C578.548 64.5903 578.82 65.4538 576.951 66.6365C575.497 67.5709 575.272 68.458 575.686 70.0902C576.242 72.2429 575.662 74.1117 573.545 75.4719C571.582 76.7374 569.535 78.1804 570.789 81.1847C570.978 81.6459 570.482 82.533 570.103 83.0653C566.957 87.4179 563.728 91.7113 560.57 96.0521C559.494 97.5306 558.11 98.9499 557.601 100.618C556.773 103.338 558.382 106.378 556.832 109.157C556.714 109.37 557.483 110.103 557.873 110.577C559.435 112.481 559.328 115.284 557.164 116.077C553.674 117.389 553.84 120.074 553.674 123.634Z" data-name="Mohammedia" fill="#2bbcb3" stroke="#ffffff" stroke-width="2" class="province-path" /> <path d="M522.969 56.9377C525.3 60.2259 527.499 63.2183 529.546 66.329C529.83 66.7548 529.546 68.1978 529.25 68.2924C521.006 70.9181 519.468 78.8782 515.967 85.1706C514.229 88.3049 513.401 91.9479 512.076 95.3188C511.78 96.0639 511.236 96.88 510.574 97.3058C505.216 100.665 499.846 104.024 494.382 107.206C492.146 108.507 489.71 109.512 487.273 110.352C486.481 110.624 485.369 109.808 484.387 109.713C482.85 109.559 481.158 109.193 479.763 109.654C477.101 110.529 474.665 112.043 472.051 113.084C469.177 114.231 468.858 114.693 469.922 117.484C470.963 120.216 470.218 121.375 467.355 121.683C463.736 122.073 460.117 122.523 456.509 123.043C453.47 123.481 453.056 123.102 451.979 120.228C451.53 119.033 450.347 117.673 449.2 117.283C446.408 116.337 445.155 114.539 443.676 112.02C441.535 108.377 438.094 105.467 435.089 102.356C433.587 100.795 431.908 99.494 429.873 101.919C429.554 102.297 428.501 102.049 427.78 102.084C428.064 101.363 428.146 100.322 428.679 99.9671C430.867 98.5359 433.28 97.4596 435.42 95.9811C437.62 94.4672 439.619 92.6575 441.701 90.978C442.032 90.706 442.328 90.2565 442.706 90.1737C448.313 89.0264 451.837 84.4372 456.545 81.8233C457.03 81.5513 457.81 81.2674 458.189 81.4803C461.702 83.4437 465.203 82.4502 468.562 81.3147C470.655 80.6169 472.382 81.0782 473.837 82.19C475.375 83.3727 476.806 83.5502 478.45 82.9351C481.714 81.7405 484.931 80.4395 488.208 79.2922C489.663 78.7836 491.224 78.204 492.714 78.2987C496.014 78.4879 498.699 77.3051 501.1 75.2826C506.836 70.4569 512.514 65.572 518.227 60.7226C519.717 59.4925 521.219 58.3334 522.969 56.9377Z" data-name="Casablanca" fill="#2bbcb3" stroke="#ffffff" stroke-width="2" class="province-path" /> <path d="M545.95 119.802C541.349 122.972 536.796 126.225 532.135 129.288C530.444 130.4 529.995 131.488 530.669 133.416C532.467 138.537 530.385 141.187 525.796 140.181C523.277 139.626 520.982 140.181 519.598 142.866C519.255 143.529 518.072 143.99 517.209 144.12C514.015 144.605 511.472 145.811 510.018 148.946C509.533 149.998 508.539 150.98 507.534 151.572C506.292 152.293 504.719 153.393 503.654 151.063C503.418 150.554 502.448 149.892 502.105 150.022C501.513 150.259 500.934 150.992 500.709 151.643C499.467 155.262 496.108 156.244 493.139 153.878C492.205 153.121 491.034 152.66 490.017 151.997C488.326 150.921 486.705 149.916 486.646 147.444C486.61 145.906 485.901 144.345 483.725 144.534C483.275 144.57 482.684 144.238 482.341 143.895C480.082 141.695 477.87 139.46 475.788 137.378C476.178 136.113 476.569 134.788 477.018 133.475C477.184 133.002 477.385 132.411 477.752 132.174C480.555 130.447 483.358 128.697 486.267 127.171C487.935 126.296 489.851 125.917 491.566 125.137C494.76 123.682 495.387 121.174 493.092 118.442C491.424 116.467 489.437 114.764 487.249 112.599C490.005 111.251 492.572 110.222 494.902 108.802C499.361 106.094 503.654 103.125 508.054 100.334C509.142 99.6478 510.503 99.3521 511.532 98.5951C512.478 97.8973 513.519 96.9156 513.826 95.8629C514.264 94.3608 514.713 94.1715 516.192 94.5264C518.936 95.2005 520.438 97.022 521.491 99.3994C522.177 100.937 523.028 101.954 524.885 101.055C525.11 100.949 525.524 100.807 525.63 100.902C528.22 103.492 533.306 101.126 534.962 105.609C535.116 106.023 535.707 106.579 536.086 106.579C539.611 106.52 540.663 109.725 542.733 111.546C543.076 111.842 543.171 112.457 543.289 112.954C543.809 115.012 544.306 117.07 544.803 119.128C545.182 119.353 545.572 119.578 545.95 119.802Z" data-name="Mdiouna" fill="#2bbcb3" stroke="#ffffff" stroke-width="2" class="province-path" /> <path d="M328.451 366.517C328.013 367.203 327.883 367.664 327.599 367.806C326.203 368.492 324.784 369.143 323.329 369.687C322.761 369.9 321.957 369.995 321.46 369.746C321.058 369.545 320.656 368.623 320.81 368.244C320.999 367.771 321.721 367.298 322.277 367.215C324.181 366.908 326.109 366.766 328.451 366.517Z" fill="#2bbcb3" stroke="#ffffff" stroke-width="2" class="province-path" /> <text x="515.4" y="394.2" text-anchor="middle" dominant-baseline="middle" font-family="sans-serif" font-weight="bold" font-size="24" fill="#1a4a5e" pointer-events="none">Settat</text><text x="194.0" y="278.2" text-anchor="middle" dominant-baseline="middle" font-family="sans-serif" font-weight="bold" font-size="24" fill="#1a4a5e" pointer-events="none">El Jadida</text><text x="160.4" y="461.4" text-anchor="middle" dominant-baseline="middle" font-family="sans-serif" font-weight="bold" font-size="22" fill="#1a4a5e" pointer-events="none">Sidi Bennour</text><text x="445.6" y="214.7" text-anchor="middle" dominant-baseline="middle" font-family="sans-serif" font-weight="bold" font-size="22" fill="#1a4a5e" pointer-events="none">Berrechid</text><text x="636.8" y="121.3" text-anchor="middle" dominant-baseline="middle" font-family="sans-serif" font-weight="bold" font-size="22" fill="#1a4a5e" pointer-events="none">Benslimane</text><text x="437.5" y="153.8" text-anchor="middle" dominant-baseline="middle" font-family="sans-serif" font-weight="bold" font-size="22" fill="#1a4a5e" pointer-events="none">Nouaceur</text><text x="565" y="65" text-anchor="middle" dominant-baseline="middle" font-family="sans-serif" font-weight="bold" font-size="18" fill="#1a4a5e" pointer-events="none">Mohammedia</text><text x="440" y="82" text-anchor="middle" dominant-baseline="middle" font-family="sans-serif" font-weight="bold" font-size="22" fill="#1a4a5e" pointer-events="none">Casablanca</text><text x="510" y="125" text-anchor="middle" dominant-baseline="middle" font-family="sans-serif" font-weight="bold" font-size="22" fill="#1a4a5e" pointer-events="none">Mdiouna</text></svg>